<svg width="302" height="217" viewBox="0 0 302 217" fill="none" xmlns="http://www.w3.org/2000/svg">
<g clip-path="url(#clip0)">
<path d="M24.7673 91.1848C24.7673 95.424 22.4203 98.589 18.9651 98.589C17.8021 98.589 16.7123 97.9565 16.3385 97.243C16.3385 97.243 15.7139 99.7311 15.5806 100.215C15.3363 101.021 14.9791 101.79 14.5195 102.496C14.313 102.392 13.7668 102.162 13.2362 101.945C13.1989 101.152 13.263 100.358 13.427 99.5822C13.6309 98.704 14.807 93.6912 14.807 93.6912C14.572 93.1533 14.4544 92.5715 14.462 91.9845C14.462 90.385 15.3846 89.188 16.5345 89.188C17.5146 89.188 17.9851 89.925 17.9851 90.8084C17.9851 91.7964 17.3552 93.273 17.0337 94.6425C16.9695 94.8957 16.9656 95.1605 17.0223 95.4155C17.079 95.6704 17.1947 95.9086 17.3602 96.1107C17.5257 96.3128 17.7364 96.4732 17.9752 96.5791C18.2139 96.685 18.4743 96.7334 18.7352 96.7203C20.7685 96.7203 22.1406 94.0937 22.1406 90.9783C22.1406 88.6078 20.5542 86.8384 17.6688 86.8384C14.4097 86.8384 12.3737 89.2847 12.3737 92.0133C12.3417 92.7824 12.5948 93.5364 13.0846 94.1303C13.1701 94.2022 13.2309 94.2991 13.2586 94.4074C13.2862 94.5157 13.2793 94.6299 13.2388 94.734C13.1865 94.9326 13.0716 95.4083 13.0167 95.6017C13.0078 95.6598 12.9851 95.7148 12.9507 95.7624C12.9162 95.81 12.871 95.8486 12.8186 95.8752C12.7662 95.9018 12.7083 95.9155 12.6495 95.9152C12.5908 95.9149 12.533 95.9006 12.4809 95.8735C10.9781 95.2541 10.2776 93.6049 10.2776 91.7441C10.2776 88.6758 12.8546 84.9958 17.9615 84.9958C22.0648 84.9958 24.7673 87.9805 24.7673 91.1848Z" fill="#F50057"/>
<path d="M285.159 27.6121H278.082C276.781 27.6054 275.53 28.1135 274.602 29.0257C273.674 29.9379 273.145 31.1801 273.129 32.4812V39.4359C273.145 40.7367 273.674 41.9786 274.602 42.8904C275.53 43.8021 276.781 44.3097 278.082 44.3024H285.159C286.46 44.3097 287.711 43.8021 288.639 42.8904C289.567 41.9786 290.097 40.7367 290.112 39.4359V32.4812C290.097 31.1801 289.567 29.9379 288.64 29.0257C287.712 28.1135 286.461 27.6054 285.159 27.6121ZM281.621 38.7407C281.073 38.7313 280.539 38.5601 280.088 38.2487C279.637 37.9373 279.288 37.4995 279.084 36.9904C278.881 36.4812 278.833 35.9234 278.945 35.3868C279.058 34.8503 279.327 34.359 279.718 33.9746C280.109 33.5902 280.604 33.3298 281.143 33.2262C281.681 33.1225 282.238 33.1802 282.744 33.392C283.249 33.6038 283.681 33.9603 283.985 34.4167C284.289 34.8731 284.451 35.409 284.451 35.9572C284.444 36.7014 284.142 37.4122 283.611 37.934C283.081 38.4558 282.365 38.7459 281.621 38.7407L281.621 38.7407ZM286.221 32.4812C286.015 32.4776 285.815 32.4134 285.646 32.2967C285.477 32.1799 285.346 32.0158 285.27 31.8249C285.194 31.634 285.176 31.4249 285.218 31.2238C285.26 31.0227 285.361 30.8386 285.508 30.6945C285.654 30.5505 285.84 30.4529 286.042 30.4142C286.244 30.3754 286.453 30.3971 286.642 30.4766C286.832 30.556 286.993 30.6897 287.107 30.8608C287.221 31.032 287.282 31.2329 287.282 31.4384C287.281 31.5766 287.253 31.7133 287.199 31.8406C287.145 31.9679 287.066 32.0833 286.968 32.1802C286.869 32.2771 286.752 32.3536 286.624 32.4052C286.496 32.4569 286.359 32.4827 286.221 32.4812Z" fill="#F50057"/>
<path d="M159.401 202.813H79.7998C78.0072 202.818 76.2502 202.312 74.7351 201.354C73.5204 200.598 72.5162 199.547 71.8155 198.299C71.1149 197.051 70.7404 195.647 70.7268 194.216V8.60282C70.7268 3.85922 74.797 1.99399e-06 79.7998 1.99399e-06H98.5073V1.70737C98.5073 5.35118 101.644 8.31569 105.5 8.31569H131.872C133.357 8.32392 134.807 7.87232 136.024 7.02294C136.887 6.42731 137.594 5.63416 138.089 4.70955C138.583 3.78494 138.849 2.75564 138.865 1.70737V0H159.401C164.404 0 168.474 3.85922 168.474 8.60282V194.216C168.467 195.477 168.176 196.72 167.623 197.853C167.07 198.986 166.269 199.98 165.28 200.762C163.612 202.097 161.537 202.821 159.401 202.813ZM79.7998 0.522713C75.0851 0.522713 71.2495 4.14751 71.2495 8.60282V194.216C71.2633 195.559 71.6157 196.877 72.2741 198.048C72.9326 199.219 73.8757 200.204 75.0163 200.914C76.4475 201.818 78.1069 202.296 79.7998 202.29H159.401C161.418 202.298 163.376 201.615 164.951 200.355C165.88 199.623 166.631 198.691 167.151 197.628C167.67 196.565 167.944 195.399 167.951 194.216V8.60282C167.951 4.14751 164.116 0.522715 159.401 0.522715H139.388V1.70737C139.372 2.84009 139.085 3.95259 138.552 4.952C138.018 5.95142 137.254 6.80876 136.321 7.4525C135.017 8.36284 133.463 8.84697 131.872 8.8384H105.5C101.356 8.8384 97.9846 5.63946 97.9846 1.70737V0.522713H79.7998Z" fill="#3F3D56"/>
<path d="M162.014 15.7784V185.19C162.012 187.208 161.21 189.143 159.782 190.569C158.355 191.996 156.419 192.797 154.401 192.798H85.6251C84.6253 192.8 83.6349 192.604 82.7108 192.222C81.7866 191.841 80.9469 191.281 80.2396 190.574C79.5324 189.867 78.9715 189.028 78.5892 188.104C78.207 187.18 78.0107 186.19 78.0118 185.19V15.7784C78.0117 14.7785 78.2086 13.7885 78.5911 12.8648C78.9737 11.941 79.5345 11.1017 80.2415 10.3947C80.9485 9.68776 81.7878 9.12697 82.7115 8.74439C83.6352 8.36182 84.6253 8.16495 85.6251 8.16504H95.9173V9.48489C95.9171 11.1474 96.5773 12.7419 97.7526 13.9177C98.9279 15.0935 100.522 15.7544 102.185 15.7548H137.165C138.503 15.7577 139.806 15.3287 140.881 14.5317C141.098 14.3736 141.305 14.2007 141.498 14.0142C142.11 13.4296 142.597 12.7266 142.93 11.948C143.262 11.1695 143.433 10.3315 143.432 9.48489V8.16504H154.401C155.401 8.16473 156.391 8.36145 157.315 8.74395C158.239 9.12644 159.078 9.68722 159.785 10.3942C160.492 11.1013 161.053 11.9407 161.436 12.8645C161.818 13.7883 162.015 14.7785 162.014 15.7784Z" fill="#F2F2F2"/>
<path d="M143.115 144.213H97.1486V94.7219H143.115V144.213ZM97.7379 143.624H142.526V95.3113H97.7379V143.624Z" fill="#3F3D56"/>
<path d="M133.355 44.0122H103.177V44.6015H133.355V44.0122Z" fill="#3F3D56"/>
<path d="M133.355 52.0339H103.177V52.6233H133.355V52.0339Z" fill="#3F3D56"/>
<path d="M133.355 60.0559H103.177V60.6452H133.355V60.0559Z" fill="#3F3D56"/>
<path d="M94.0864 202.882L93.8059 202.777C93.7443 202.754 87.6095 200.404 84.7358 195.074C81.8619 189.744 83.2691 183.327 83.2836 183.263L83.3499 182.971L83.6302 183.076C83.6919 183.099 89.8265 185.45 92.7004 190.779C95.5743 196.109 94.1671 202.526 94.1525 202.59L94.0864 202.882ZM85.1959 194.826C87.6256 199.332 92.4735 201.642 93.7018 202.169C93.9353 200.853 94.6677 195.529 92.2402 191.027C89.8129 186.526 84.9632 184.213 83.7344 183.684C83.5007 185.001 82.7686 190.325 85.1959 194.826Z" fill="#3F3D56"/>
<path d="M86.9323 193.204C92.0968 196.312 94.0859 202.483 94.0859 202.483C94.0859 202.483 87.7015 203.617 82.537 200.51C77.3724 197.403 75.3834 191.231 75.3834 191.231C75.3834 191.231 81.7677 190.097 86.9323 193.204Z" fill="#F50057"/>
<path d="M144.821 198.239L136.981 197.716L139.594 209.477L148.48 205.818L144.821 198.239Z" fill="#FFB9B9"/>
<path d="M216.694 176.285L198.399 158.513L187.945 166.615L167.298 191.444L169.65 195.103L194.74 178.115L211.729 200.33L227.933 192.228L216.694 176.285Z" fill="#2F2E41"/>
<path opacity="0.1" d="M216.694 176.285L198.399 158.513L187.945 166.615L167.298 191.444L169.65 195.103L194.74 178.115L211.729 200.33L227.933 192.228L216.694 176.285Z" fill="black"/>
<path d="M218.263 188.046L215.91 189.876L196.831 183.342L192.388 181.512L183.502 183.342C183.502 183.342 183.502 176.024 191.866 176.285L200.49 178.376L210.683 179.16L218.263 188.046Z" fill="#FFB9B9"/>
<path d="M235.251 207.387L229.501 211.046H222.706L191.081 199.284L144.821 207.648L143.515 197.716L185.854 179.16L222.967 191.444L235.251 207.387Z" fill="#2F2E41"/>
<path d="M198.138 160.865L194.218 161.649L193.364 160.652C192.687 159.863 192.259 158.892 192.132 157.861C192.005 156.829 192.185 155.783 192.65 154.854L203.627 140.479C203.627 140.479 206.763 133.423 211.729 136.298C216.695 139.172 207.547 143.877 207.547 143.877L202.059 152.502L202.581 156.945L198.138 160.865Z" fill="#FFB9B9"/>
<path d="M222.967 143.877C228.596 143.877 233.16 139.313 233.16 133.684C233.16 128.055 228.596 123.491 222.967 123.491C217.338 123.491 212.774 128.055 212.774 133.684C212.774 139.313 217.338 143.877 222.967 143.877Z" fill="#FFB9B9"/>
<path d="M218.393 141.133L223.098 152.371L234.336 147.667C234.336 147.667 230.677 138.781 230.677 138.519C230.677 138.258 218.393 141.133 218.393 141.133Z" fill="#FFB9B9"/>
<path d="M249.341 174.38C249.34 180.531 248.371 186.645 246.468 192.494L245.705 194.841L242.046 211.568L238.126 212.614L235.251 208.955L229.501 204.773L225.319 197.978L221.733 192.003L220.615 190.137L216.695 170.535L201.797 162.172L196.831 161.388L197.877 158.513L202.32 152.502L206.763 151.979L208.07 150.933L209.115 151.456L213.297 149.104L214.604 149.627L222.246 150.338L226.887 149.365L233.562 145.782L236.296 146.229L245.705 154.07C248.11 160.571 249.341 167.448 249.341 174.38Z" fill="#575A89"/>
<path d="M139.388 202.286C139.388 202.286 141.729 198.318 140.74 197.855C139.751 197.392 135.552 195.545 135.552 195.545L129.394 193.505C129.394 193.505 120.509 180.299 120.314 191.783C120.119 203.266 126.783 206.027 126.783 206.027C126.783 206.027 132.728 218.819 136.095 216.779C139.462 214.739 142.831 207.815 142.831 207.815C142.831 207.815 136.759 204.551 139.388 202.286Z" fill="#2F2E41"/>
<path opacity="0.1" d="M246.489 172.103L236.558 178.637L221.733 192.003L220.615 190.137L217.479 174.456H218.263L226.365 159.558L246.489 172.103Z" fill="black"/>
<path d="M226.365 157.99L218.263 172.887H215.388L213.558 178.115L209.376 179.16L220.615 191.444L236.558 177.069L246.489 170.535L226.365 157.99Z" fill="#575A89"/>
<path d="M215.039 126.105L213.935 126.53C213.765 126.415 213.62 126.267 213.508 126.096C213.396 125.924 213.319 125.731 213.282 125.529C213.246 125.328 213.25 125.12 213.294 124.92C213.338 124.72 213.422 124.53 213.541 124.363L211.5 124.267C212.81 122.523 214.476 121.076 216.387 120.023C218.298 118.97 220.411 118.335 222.586 118.16C224.76 117.984 226.948 118.273 229.003 119.006C231.058 119.739 232.934 120.901 234.506 122.413C234.599 122.093 235.612 122.716 236.026 123.347C236.165 122.826 237.114 125.344 237.45 127.123C237.606 126.531 238.204 127.487 237.68 128.405C238.012 128.356 238.162 129.205 237.905 129.679C238.268 129.508 238.207 130.522 237.813 131.199C238.331 131.153 233.726 138.3 231.862 142.476C231.321 139.989 230.712 137.369 228.967 135.517C228.67 135.202 228.345 134.915 228.021 134.629L226.266 133.08C224.226 131.279 222.37 129.056 219.652 128.383C217.785 127.921 216.604 127.816 217.621 125.712C216.702 126.096 215.843 126.666 214.915 127.023C214.928 126.729 215.057 126.399 215.039 126.105Z" fill="#2F2E41"/>
<path d="M228.064 136.69C229.074 136.69 229.893 135.87 229.893 134.86C229.893 133.85 229.074 133.031 228.064 133.031C227.053 133.031 226.234 133.85 226.234 134.86C226.234 135.87 227.053 136.69 228.064 136.69Z" fill="#FFB9B9"/>
<path d="M127.398 114.1C127.408 114.301 127.413 114.507 127.413 114.713C127.413 120.984 122.639 128.215 113.91 128.215C111.334 128.221 108.812 127.475 106.654 126.07C107.029 126.116 107.406 126.139 107.784 126.14C109.92 126.144 111.994 125.429 113.674 124.11C112.684 124.09 111.724 123.762 110.93 123.171C110.135 122.58 109.545 121.756 109.242 120.813C109.536 120.87 109.836 120.898 110.136 120.899C110.557 120.9 110.976 120.844 111.382 120.733C110.309 120.516 109.343 119.933 108.65 119.085C107.956 118.237 107.578 117.175 107.578 116.08V116.024C108.238 116.394 108.978 116.598 109.734 116.617C108.729 115.946 108.017 114.918 107.743 113.741C107.468 112.564 107.652 111.327 108.257 110.28C109.446 111.747 110.931 112.947 112.615 113.802C114.299 114.657 116.145 115.147 118.031 115.24C117.95 114.884 117.909 114.52 117.91 114.155C117.909 113.204 118.195 112.274 118.729 111.487C119.264 110.7 120.023 110.093 120.907 109.743C121.792 109.393 122.762 109.318 123.69 109.527C124.618 109.736 125.462 110.219 126.111 110.914C127.175 110.705 128.195 110.316 129.126 109.763C128.771 110.862 128.03 111.795 127.041 112.391C127.979 112.276 128.895 112.024 129.76 111.642C129.125 112.595 128.325 113.427 127.398 114.1Z" fill="#F50057"/>
<path d="M120.163 139.377C116.434 139.377 112.788 138.271 109.687 136.2C106.587 134.128 104.17 131.183 102.743 127.738C101.316 124.293 100.943 120.502 101.67 116.844C102.398 113.187 104.193 109.827 106.83 107.19C109.467 104.553 112.827 102.758 116.484 102.03C120.142 101.303 123.933 101.676 127.378 103.103C130.823 104.53 133.768 106.947 135.84 110.047C137.911 113.148 139.017 116.793 139.017 120.522C139.012 125.521 137.023 130.314 133.489 133.848C129.954 137.383 125.161 139.371 120.163 139.377ZM120.163 102.19C116.537 102.19 112.993 103.266 109.978 105.28C106.963 107.294 104.614 110.157 103.226 113.507C101.838 116.857 101.475 120.543 102.183 124.099C102.89 127.655 104.636 130.921 107.2 133.485C109.764 136.049 113.03 137.795 116.586 138.502C120.142 139.21 123.828 138.846 127.178 137.459C130.528 136.071 133.391 133.722 135.405 130.707C137.419 127.692 138.494 124.148 138.494 120.522C138.489 115.662 136.556 111.003 133.119 107.566C129.682 104.129 125.023 102.196 120.163 102.19ZM115.866 130.186C113.239 130.191 110.668 129.431 108.466 127.998L107.528 127.388L108.639 127.52C109.004 127.564 109.372 127.586 109.74 127.587C111.584 127.594 113.388 127.046 114.916 126.013C114.004 125.866 113.151 125.469 112.451 124.867C111.751 124.264 111.231 123.48 110.95 122.6L110.814 122.176L111.251 122.264C111.563 122.327 111.882 122.354 112.2 122.346C111.328 121.945 110.589 121.303 110.07 120.496C109.551 119.689 109.275 118.75 109.273 117.79V117.285L109.662 117.503C110.023 117.706 110.412 117.856 110.816 117.95C110.02 117.171 109.507 116.148 109.357 115.045C109.207 113.941 109.43 112.819 109.989 111.856L110.179 111.528L110.417 111.822C111.549 113.215 112.953 114.363 114.544 115.196C116.134 116.028 117.877 116.529 119.667 116.666C119.625 116.401 119.604 116.133 119.605 115.865C119.604 114.874 119.897 113.905 120.448 113.08C120.999 112.256 121.783 111.614 122.699 111.236C123.616 110.859 124.624 110.762 125.596 110.958C126.568 111.154 127.459 111.635 128.157 112.339C129.141 112.131 130.083 111.763 130.947 111.248L131.538 110.897L131.329 111.552C131.074 112.351 130.622 113.072 130.014 113.649C130.561 113.518 131.096 113.337 131.611 113.109L132.433 112.746L131.934 113.493C131.308 114.434 130.525 115.259 129.619 115.935C129.625 116.094 129.628 116.257 129.628 116.419C129.628 123.186 124.48 130.186 115.866 130.186ZM109.675 128.109C111.578 129.133 113.705 129.667 115.866 129.663C124.153 129.663 129.105 122.929 129.105 116.419C129.105 116.217 129.1 116.016 129.09 115.82L129.084 115.678L129.198 115.595C129.861 115.116 130.458 114.551 130.974 113.917C130.341 114.129 129.688 114.276 129.026 114.357L127.805 114.507L128.86 113.874C129.587 113.439 130.176 112.808 130.561 112.053C129.788 112.437 128.966 112.715 128.119 112.88L127.977 112.908L127.878 112.802C127.264 112.145 126.467 111.688 125.589 111.491C124.712 111.293 123.796 111.365 122.96 111.695C122.124 112.026 121.406 112.6 120.901 113.344C120.396 114.088 120.126 114.966 120.128 115.865C120.126 116.209 120.165 116.552 120.243 116.887L120.324 117.226L119.976 117.209C118.119 117.114 116.302 116.644 114.633 115.827C112.963 115.01 111.477 113.862 110.264 112.454C109.805 113.428 109.71 114.534 109.998 115.572C110.286 116.61 110.938 117.509 111.834 118.106L112.583 118.607L111.682 118.585C111.037 118.568 110.401 118.424 109.811 118.162C109.893 119.129 110.286 120.044 110.931 120.769C111.576 121.495 112.439 121.992 113.39 122.186L114.476 122.404L113.407 122.694C112.819 122.854 112.206 122.905 111.599 122.845C111.94 123.637 112.502 124.314 113.218 124.795C113.934 125.275 114.773 125.539 115.635 125.555L116.369 125.569L115.792 126.021C114.069 127.382 111.935 128.118 109.74 128.109C109.718 128.109 109.697 128.109 109.675 128.109Z" fill="#3F3D56"/>
<path d="M284.495 40.5691C283.896 40.5596 283.312 40.373 282.818 40.0328C282.324 39.6926 281.941 39.214 281.719 38.6571C281.496 38.1002 281.442 37.4899 281.565 36.9027C281.688 36.3156 281.982 35.7779 282.409 35.3572C282.837 34.9364 283.379 34.6514 283.968 34.5379C284.557 34.4244 285.167 34.4875 285.72 34.7193C286.273 34.951 286.746 35.3411 287.078 35.8405C287.41 36.34 287.587 36.9264 287.587 37.5263C287.58 38.3395 287.25 39.1166 286.671 39.687C286.091 40.2574 285.309 40.5747 284.495 40.5691ZM284.495 35.006C283.999 35.0156 283.517 35.1715 283.108 35.4542C282.7 35.7369 282.385 36.1339 282.201 36.5953C282.018 37.0566 281.975 37.5619 282.078 38.0476C282.18 38.5334 282.424 38.978 282.779 39.3256C283.133 39.6733 283.582 39.9086 284.07 40.0019C284.558 40.0953 285.062 40.0426 285.52 39.8504C285.977 39.6582 286.368 39.3351 286.643 38.9216C286.918 38.5082 287.065 38.0228 287.065 37.5263C287.057 36.8517 286.783 36.2075 286.301 35.735C285.819 35.2625 285.17 35.0004 284.495 35.006Z" fill="#3F3D56"/>
<path d="M288.033 44.7415H280.957C279.955 44.7424 278.991 44.3489 278.276 43.6459C277.922 43.3032 277.64 42.8925 277.448 42.4384C277.256 41.9843 277.157 41.4961 277.158 41.0031V34.0492C277.159 33.5567 277.258 33.0694 277.45 32.6158C277.642 32.1622 277.922 31.7515 278.275 31.4078C278.988 30.701 279.953 30.3064 280.957 30.3108H288.033C289.036 30.3098 289.999 30.7035 290.715 31.4067C291.069 31.7493 291.351 32.1599 291.543 32.614C291.735 33.068 291.834 33.5562 291.833 34.0492V41.0031C291.832 41.4956 291.733 41.983 291.541 42.4366C291.349 42.8902 291.069 43.3009 290.716 43.6446C290.002 44.3513 289.038 44.7459 288.033 44.7415ZM280.957 30.8335C280.091 30.8295 279.258 31.1697 278.642 31.7794C278.339 32.0746 278.098 32.4275 277.933 32.8172C277.767 33.207 277.682 33.6259 277.681 34.0492V41.0031C277.68 41.4264 277.765 41.8455 277.93 42.2353C278.095 42.6251 278.337 42.9776 278.641 43.2718C279.259 43.8793 280.091 44.2194 280.957 44.2187H288.033C288.9 44.2227 289.732 43.8825 290.348 43.273C290.652 42.9778 290.893 42.6249 291.058 42.2351C291.223 41.8453 291.309 41.4264 291.31 41.0031V34.0492C291.311 33.6259 291.226 33.2069 291.061 32.8171C290.896 32.4273 290.654 32.0748 290.35 31.7807C289.732 31.1731 288.9 30.8329 288.033 30.8335L280.957 30.8335ZM284.495 41.96C283.622 41.9456 282.771 41.6734 282.052 41.1775C281.332 40.6816 280.775 39.9841 280.451 39.1726C280.126 38.3611 280.049 37.4719 280.228 36.6165C280.407 35.7612 280.835 34.9779 281.458 34.365C282.081 33.7522 282.872 33.337 283.73 33.1718C284.588 33.0066 285.476 33.0987 286.282 33.4364C287.088 33.7742 287.776 34.3425 288.26 35.0702C288.744 35.7978 289.002 36.6523 289.002 37.5262C288.991 38.7114 288.511 39.8438 287.666 40.6749C286.821 41.5061 285.681 41.9682 284.495 41.96ZM284.495 33.6152C283.725 33.6295 282.976 33.871 282.342 34.3095C281.709 34.748 281.219 35.3638 280.934 36.0798C280.649 36.7957 280.582 37.5799 280.741 38.3339C280.9 39.0878 281.278 39.778 281.828 40.3178C282.378 40.8576 283.075 41.2229 283.832 41.368C284.589 41.513 285.371 41.4313 286.082 41.1332C286.792 40.835 287.399 40.3336 287.826 39.6919C288.252 39.0502 288.48 38.2968 288.48 37.5262C288.469 36.4796 288.043 35.4801 287.296 34.7469C286.549 34.0137 285.542 33.6067 284.495 33.6152ZM289.095 34.3106C288.838 34.307 288.587 34.2275 288.375 34.082C288.163 33.9365 287.999 33.7315 287.903 33.4928C287.807 33.2542 287.783 32.9924 287.836 32.7406C287.888 32.4887 288.014 32.258 288.197 32.0773C288.38 31.8967 288.612 31.7742 288.865 31.7254C289.118 31.6765 289.379 31.7033 289.616 31.8026C289.854 31.9019 290.056 32.0691 290.199 32.2832C290.341 32.4973 290.417 32.7488 290.417 33.0061C290.415 33.3543 290.274 33.6872 290.026 33.9317C289.778 34.1763 289.443 34.3125 289.095 34.3106ZM289.095 32.2244C288.941 32.228 288.792 32.2768 288.665 32.3649C288.539 32.4529 288.442 32.5763 288.385 32.7194C288.329 32.8626 288.316 33.0192 288.348 33.1697C288.38 33.3202 288.456 33.4578 288.566 33.5654C288.676 33.6729 288.816 33.7456 288.967 33.7743C289.118 33.803 289.274 33.7865 289.416 33.7268C289.558 33.6671 289.679 33.5668 289.764 33.4386C289.849 33.3104 289.895 33.16 289.895 33.0061C289.892 32.7964 289.806 32.5964 289.656 32.4499C289.506 32.3034 289.305 32.2223 289.095 32.2244Z" fill="#3F3D56"/>
<path d="M284.314 54.436C274.91 54.436 267.26 46.9159 267.26 37.6723C267.26 28.4287 274.91 20.9084 284.314 20.9084C293.717 20.9084 301.367 28.4287 301.367 37.6723C301.367 46.9159 293.717 54.436 284.314 54.436ZM284.314 21.4312C275.199 21.4312 267.783 28.7169 267.783 37.6723C267.783 46.6276 275.199 53.9133 284.314 53.9133C293.429 53.9133 300.845 46.6276 300.845 37.6723C300.845 28.7169 293.429 21.4312 284.314 21.4312ZM288.033 46.1322H280.957C279.586 46.1419 278.267 45.6073 277.29 44.6458C276.312 43.6842 275.756 42.3742 275.743 41.0031V34.0492C275.756 32.678 276.312 31.368 277.29 30.4064C278.267 29.4449 279.586 28.9103 280.957 28.92H288.033C289.405 28.9103 290.724 29.4449 291.701 30.4064C292.679 31.368 293.235 32.678 293.248 34.0492V41.0031C293.235 42.3742 292.679 43.6842 291.701 44.6458C290.724 45.6073 289.405 46.1419 288.033 46.1322ZM280.957 29.4427C279.725 29.4329 278.539 29.9124 277.659 30.7759C276.78 31.6395 276.278 32.8166 276.266 34.0492V41.0031C276.278 42.2356 276.78 43.4127 277.659 44.2763C278.539 45.1398 279.725 45.6193 280.957 45.6095H288.033C289.266 45.6193 290.452 45.1398 291.332 44.2763C292.211 43.4127 292.713 42.2356 292.725 41.0031V34.0492C292.713 32.8166 292.211 31.6395 291.332 30.7759C290.452 29.9124 289.266 29.4329 288.033 29.4427H280.957Z" fill="#3F3D56"/>
<path d="M18.4847 111.636C8.29228 111.636 6.10352e-05 103.304 6.10352e-05 93.0615C6.10352e-05 82.8194 8.29227 74.4867 18.4847 74.4867C28.6771 74.4867 36.9693 82.8194 36.9693 93.0615C36.9693 103.304 28.6771 111.636 18.4847 111.636ZM18.4847 75.0094C8.58042 75.0094 0.522775 83.1075 0.522775 93.0615C0.522775 103.016 8.58042 111.114 18.4847 111.114C28.3889 111.114 36.4466 103.016 36.4466 93.0615C36.4466 83.1075 28.3889 75.0094 18.4847 75.0094ZM18.5938 104.018C17.5369 104.017 16.4856 103.864 15.4723 103.563L15.1418 103.466L15.3248 103.174C15.781 102.48 16.1343 101.724 16.3738 100.929C16.5062 100.454 17.1247 97.9878 17.1308 97.9629L17.2976 97.298L17.6159 97.9051C17.9266 98.4977 18.9069 99.1108 20.0097 99.1108C23.2722 99.1108 25.5507 96.1738 25.5507 91.9685C25.5507 89.0552 23.103 86.0417 19.0066 86.0417C13.8868 86.0417 11.584 89.8346 11.584 92.528C11.584 94.4652 12.3279 95.8818 13.6249 96.4149C13.6621 96.4347 13.7057 96.439 13.746 96.427C13.7807 96.4013 13.8038 96.363 13.8104 96.3203C13.8391 96.2153 13.8846 96.0323 13.929 95.8545C13.9684 95.6971 14.0066 95.5435 14.0314 95.4509C14.0782 95.2753 14.081 95.2648 13.9294 95.0827C13.4012 94.4414 13.1269 93.6284 13.1586 92.7981C13.1586 90.1626 15.1055 87.3615 18.7137 87.3615C21.5898 87.3615 23.4483 89.0885 23.4483 91.7611C23.4483 95.1849 21.8709 97.7669 19.7793 97.7669C19.4722 97.7725 19.1678 97.7083 18.8891 97.5792C18.6103 97.45 18.3646 97.2592 18.1704 97.0212C17.9897 96.7905 17.8647 96.5213 17.8049 96.2344C17.7452 95.9476 17.7523 95.6508 17.8258 95.3672C17.945 94.8593 18.1048 94.3405 18.2592 93.8389C18.5214 92.9865 18.7693 92.1815 18.7693 91.5923C18.7693 91.2734 18.6836 90.2331 17.5812 90.2331C16.5651 90.2331 15.7691 91.347 15.7691 92.7692C15.7636 93.3158 15.8719 93.8576 16.0873 94.36L16.129 94.4443L16.1078 94.5363C16.1078 94.5363 14.932 99.5477 14.7256 100.425C14.5598 101.217 14.4992 102.027 14.5452 102.835L14.5611 103.253L14.1783 103.084C11.8612 102.058 9.96593 100.269 8.80874 98.0145C7.65155 95.7601 7.30243 93.1772 7.81962 90.6965C8.33681 88.2159 9.68904 85.9876 11.6507 84.3836C13.6123 82.7795 16.0647 81.8966 18.5986 81.8823C20.0485 81.8857 21.4834 82.1748 22.8215 82.7332C24.1595 83.2915 25.3744 84.108 26.3966 85.1362C27.4189 86.1643 28.2285 87.3838 28.7791 88.725C29.3298 90.0662 29.6107 91.5028 29.6059 92.9527C29.6095 95.8793 28.4522 98.6878 26.3878 100.762C24.3233 102.837 21.5204 104.007 18.5938 104.018ZM15.9492 103.153C18.5651 103.847 21.3476 103.508 23.7205 102.207C26.0934 100.905 27.8749 98.7411 28.6961 96.1624C29.5172 93.5837 29.3152 90.7879 28.1319 88.354C26.9485 85.9201 24.8744 84.0346 22.3391 83.0878C19.8037 82.141 17.0014 82.2056 14.5124 83.2681C12.0234 84.3306 10.0383 86.3097 8.96825 88.7955C7.89821 91.2813 7.82517 94.0834 8.76425 96.6216C9.70333 99.1598 11.5826 101.24 14.0129 102.43C13.9973 101.717 14.0657 101.004 14.2167 100.306C14.4071 99.4963 15.4222 95.1701 15.5786 94.5032C15.3558 93.9524 15.243 93.3633 15.2464 92.7692C15.2464 91.0539 16.2719 89.7103 17.5812 89.7103C18.6205 89.7103 19.292 90.4491 19.292 91.5923C19.292 92.2601 19.0329 93.1016 18.7587 93.9926C18.6068 94.4858 18.4498 94.9959 18.3347 95.4865C18.28 95.6934 18.2736 95.9102 18.3162 96.1201C18.3587 96.3299 18.449 96.5271 18.58 96.6964C18.7254 96.8725 18.9089 97.0133 19.1167 97.1082C19.3244 97.2031 19.551 97.2495 19.7793 97.2441C21.573 97.2441 22.9256 94.8869 22.9256 91.7611C22.9256 89.3697 21.3117 87.8842 18.7137 87.8842C15.4451 87.8842 13.6813 90.4159 13.6813 92.7981C13.6517 93.5052 13.8825 94.1986 14.33 94.7469C14.4435 94.8507 14.5236 94.9857 14.5604 95.135C14.5971 95.2843 14.5888 95.4411 14.5365 95.5856C14.5122 95.6766 14.4747 95.827 14.4362 95.981C14.3907 96.1634 14.3439 96.3508 14.3152 96.4556C14.2964 96.5496 14.2564 96.6382 14.1981 96.7143C14.1398 96.7905 14.0649 96.8523 13.979 96.8951C13.8931 96.9378 13.7986 96.9602 13.7027 96.9608C13.6068 96.9613 13.5121 96.9398 13.4257 96.898C11.9454 96.2898 11.0613 94.6561 11.0613 92.528C11.0613 89.0826 14.0332 85.5189 19.0066 85.5189C23.4301 85.5189 26.0734 88.7981 26.0734 91.9685C26.0734 96.4099 23.5233 99.6335 20.0097 99.6335C19.0756 99.6317 18.1782 99.2703 17.5036 98.6243C17.312 99.3851 16.9741 100.722 16.8779 101.068C16.6622 101.801 16.35 102.502 15.9492 103.153Z" fill="#3F3D56"/>
<path d="M261.831 92.4614C258.654 92.4736 255.507 91.8575 252.569 90.6484C244.375 87.2325 238.948 79.8769 233.7 72.7634C230.867 68.923 227.937 64.952 224.591 61.6085C219.228 56.2507 213.007 52.7893 206.6 51.5986C199.399 50.2599 192.061 51.9911 186.971 56.2278C186.328 56.7643 185.721 57.344 185.156 57.963C185.899 58.0532 186.64 58.1495 187.379 58.2519C195.15 59.3289 204.896 62.3158 207.196 70.4303C208.078 73.545 207.45 77.0708 205.472 80.1034C203.353 83.3529 199.98 85.5873 196.45 86.0803C195.874 86.1604 195.294 86.2004 194.714 86.2001C188.356 86.2005 182.092 81.4746 180.237 74.9785C178.666 69.4771 180.251 63.0667 184.116 58.3667C179.444 57.8342 174.747 57.5423 170.045 57.4923L170.05 56.9695C174.887 57.021 179.718 57.3274 184.523 57.8875C185.173 57.1464 185.88 56.4572 186.637 55.8261C191.845 51.491 199.343 49.7187 206.695 51.0845C213.207 52.2947 219.523 55.8059 224.96 61.2387C228.335 64.61 231.276 68.5971 234.121 72.453C239.566 79.834 244.709 86.8058 252.77 90.1661C260.872 93.5437 270.821 92.007 277.527 86.3432C284.233 80.6795 287.412 71.1277 285.437 62.575L285.947 62.4574C287.964 71.1961 284.716 80.9556 277.864 86.7426C273.436 90.4828 267.623 92.4613 261.831 92.4614ZM184.736 58.439C180.819 63.0301 179.186 69.3932 180.74 74.8351C182.694 81.6815 189.71 86.4935 196.377 85.5627C199.76 85.0901 202.996 82.9426 205.034 79.8178C206.93 76.9117 207.534 73.542 206.693 70.5727C204.47 62.7298 194.924 59.8253 187.307 58.7698C186.453 58.6514 185.596 58.5411 184.736 58.439Z" fill="#3F3D56"/>
<path d="M59.2671 89.1237C56.9208 89.1317 54.5809 88.8789 52.2904 88.3701C46.5951 87.1454 41.478 84.0389 37.7637 79.5511C36.5377 78.0829 35.4211 76.4346 34.3413 74.8404C32.7021 72.4207 31.0071 69.9184 28.9249 68.0565C26.8531 66.2039 24.1253 65.2294 21.8081 65.5106C20.9653 65.6069 20.1539 65.8871 19.4313 66.3313C18.7087 66.7755 18.0924 67.373 17.626 68.0815L17.1941 67.787C17.7018 67.0163 18.3724 66.3665 19.1587 65.8835C19.9451 65.4005 20.8279 65.0961 21.7448 64.9917C24.2436 64.6877 27.0596 65.6871 29.2733 67.6668C31.4036 69.5718 33.1171 72.1012 34.774 74.5473C35.8467 76.1307 36.9558 77.7681 38.1649 79.216C45.2164 87.6598 56.4169 90.6104 68.8951 87.3114L69.0286 87.8168C65.8446 88.6707 62.5636 89.1099 59.2671 89.1237Z" fill="#3F3D56"/>
</g>
<defs>
<clipPath id="clip0">
<rect width="301.367" height="217" fill="white"/>
</clipPath>
</defs>
</svg>
